<svg width="24" height="24" viewBox="0 0 24 24" fill="none" xmlns="http://www.w3.org/2000/svg">
<path d="M24 12C24.0017 8.88477 22.7918 5.89097 20.6263 3.65156C18.4607 1.41216 15.5091 0.102687 12.3956 0C12.3444 0 12.2911 0 12.24 0H12.1733H12C8.8174 6.70682e-08 5.76515 1.26428 3.51472 3.51472C1.26428 5.76516 0 8.8174 0 12C0 15.1826 1.26428 18.2348 3.51472 20.4853C5.76515 22.7357 8.8174 24 12 24H12.1733H12.24C12.2911 24 12.3444 24 12.3956 24C15.5091 23.8973 18.4607 22.5878 20.6263 20.3484C22.7918 18.109 24.0017 15.1152 24 12ZM12.3156 22.5556H12.1933C11.72 22.5044 10.9333 21.6889 10.2556 19.9622C9.82995 18.833 9.52094 17.6632 9.33333 16.4711H15.1511C14.9643 17.6626 14.6529 18.8312 14.2222 19.9578C13.5556 21.6444 12.7911 22.4667 12.3156 22.5556ZM9.13555 15.0267C8.92664 13.0136 8.92664 10.9842 9.13555 8.97111H15.3444C15.4498 9.9773 15.5024 10.9883 15.5022 12C15.5032 13.0109 15.4512 14.0212 15.3467 15.0267H9.13555ZM12.1933 1.44444H12.3156C12.7911 1.52444 13.56 2.33333 14.2244 4.03333C14.6508 5.16003 14.9598 6.32769 15.1467 7.51778H9.33333C9.51945 6.32707 9.83004 5.15919 10.26 4.03333C10.9356 2.31333 11.7244 1.5 12.1933 1.44444ZM16.7956 8.97111H22.1133C22.7029 10.9466 22.7029 13.0512 22.1133 15.0267H16.7956C16.8967 14.021 16.9471 13.0108 16.9467 12C16.9471 10.9885 16.8967 9.97757 16.7956 8.97111ZM21.5555 7.52667H16.6067C16.2222 5.14444 15.5556 3.14 14.72 1.8C16.2075 2.19958 17.5898 2.91905 18.7704 3.90816C19.9511 4.89728 20.9016 6.13219 21.5555 7.52667ZM9.84666 1.66667C8.95778 3 8.26222 5.06222 7.87333 7.52667H2.44444C3.14046 6.04356 4.17133 4.74232 5.45584 3.72543C6.74035 2.70854 8.24342 2.00378 9.84666 1.66667ZM1.89111 8.97111H7.68444C7.48296 10.9846 7.48296 13.0132 7.68444 15.0267H1.88667C1.29407 13.0516 1.29407 10.9461 1.88667 8.97111H1.89111ZM2.44444 16.4711H7.87333C8.26 18.9378 8.96 21 9.84889 22.3333C8.24477 21.9969 6.74081 21.2922 5.45578 20.2749C4.17075 19.2575 3.13984 17.9553 2.44444 16.4711ZM14.72 22.2C15.5644 20.8667 16.2311 18.8556 16.6067 16.4711H21.5555C20.9023 17.8663 19.9521 19.102 18.7714 20.0916C17.5907 21.0811 16.2079 21.8007 14.72 22.2Z" fill="#2F5D50"/>
</svg>
